<svg xmlns="http://www.w3.org/2000/svg" xmlns:xlink="http://www.w3.org/1999/xlink" width="500" zoomAndPan="magnify" viewBox="0 0 375 374.999991" height="500" preserveAspectRatio="xMidYMid meet" version="1.0"><defs><g/><clipPath id="4aef27639c"><path d="M 13.785156 88.679688 L 155.535156 88.679688 L 155.535156 249.179688 L 13.785156 249.179688 Z M 13.785156 88.679688 " clip-rule="nonzero"/></clipPath></defs><g clip-path="url(#4aef27639c)"><path fill="#298126" d="M 74.386719 121.671875 C 72.769531 115.230469 71.472656 108.730469 70.101562 102.234375 C 69.179688 97.878906 65.945312 95.734375 61.582031 96.492188 L 53.023438 98.667969 C 50.265625 99.308594 48.613281 102.492188 49.359375 105.1875 C 50.105469 107.996094 53.109375 109.671875 55.898438 108.902344 L 60.890625 107.523438 C 61.941406 107.234375 63.015625 107.636719 63.632812 108.453125 C 67.242188 112.839844 70.804688 117.269531 74.386719 121.671875 Z M 38.285156 124.839844 C 36.871094 123.230469 34.371094 123.058594 32.746094 124.453125 L 23.117188 132.710938 C 21.488281 134.109375 21.296875 136.65625 22.695312 138.285156 C 24.101562 139.925781 26.628906 140.113281 28.269531 138.707031 L 37.894531 130.449219 C 39.660156 128.933594 39.628906 126.628906 38.285156 124.839844 Z M 49.746094 144.277344 L 40.121094 152.535156 C 38.355469 154.050781 38.386719 156.355469 39.730469 158.144531 C 41.144531 159.753906 43.648438 159.925781 45.273438 158.53125 L 54.898438 150.273438 C 56.664062 148.757812 56.632812 146.453125 55.289062 144.664062 C 53.875 143.054688 51.371094 142.882812 49.746094 144.277344 Z M 41.246094 134.367188 C 42.871094 132.972656 45.371094 133.144531 46.789062 134.75 C 48.128906 136.539062 48.164062 138.847656 46.398438 140.363281 L 36.769531 148.621094 C 35.144531 150.015625 32.644531 149.84375 31.226562 148.234375 C 29.886719 146.445312 29.851562 144.136719 31.617188 142.621094 Z M 55.492188 156.554688 C 57.117188 155.160156 59.617188 155.332031 61.035156 156.941406 C 62.375 158.730469 62.410156 161.039062 60.644531 162.550781 L 53.773438 168.445312 C 52.148438 169.839844 49.648438 169.667969 48.230469 168.058594 C 46.890625 166.269531 46.855469 163.960938 48.625 162.445312 Z M 46.847656 96.621094 C 44.386719 99.265625 43.417969 103.070312 44.382812 106.5625 C 45.910156 112.105469 51.738281 115.394531 57.269531 113.867188 L 60.644531 112.9375 C 65.4375 118.832031 90.902344 150.574219 93.59375 150.890625 C 96.359375 151.21875 100.621094 151.316406 103.035156 152.277344 C 109.75 154.957031 118.980469 163.269531 125.394531 167.921875 C 127.757812 169.636719 128.371094 172.828125 126.765625 175.277344 C 124.898438 178.132812 121.753906 177.210938 118.96875 176.296875 C 118.6875 176.191406 118.386719 176.132812 118.070312 176.132812 C 116.648438 176.132812 115.496094 177.285156 115.496094 178.707031 L 115.503906 236.648438 C 115.5 238.863281 113.664062 240.6875 111.453125 240.6875 C 109.242188 240.6875 107.410156 238.847656 107.410156 236.636719 L 107.429688 210.148438 C 107.429688 208.726562 106.277344 207.574219 104.855469 207.574219 C 103.433594 207.574219 102.28125 208.726562 102.28125 210.148438 L 102.261719 236.640625 C 102.261719 239.199219 101.265625 241.78125 98.214844 241.78125 C 96 241.777344 94.171875 239.945312 94.171875 237.730469 C 94.179688 228.238281 94.183594 218.738281 94.191406 209.234375 C 94.191406 207.8125 93.039062 206.660156 91.617188 206.660156 C 90.195312 206.660156 89.042969 207.8125 89.042969 209.234375 L 89.03125 230.359375 C 88.984375 232.542969 87.160156 234.3125 84.980469 234.3125 C 82.765625 234.3125 80.9375 232.480469 80.9375 230.265625 C 80.945312 222.542969 80.949219 214.847656 80.953125 207.125 C 80.953125 205.703125 79.800781 204.550781 78.378906 204.550781 C 76.960938 204.550781 75.808594 205.703125 75.808594 207.125 L 75.800781 217.898438 C 75.765625 220.089844 73.941406 221.875 71.75 221.875 C 69.535156 221.875 67.707031 220.039062 67.710938 217.828125 L 67.511719 176.1875 C 67.507812 175.609375 67.3125 175.027344 66.914062 174.550781 L 61.78125 168.363281 L 63.992188 166.46875 C 67.773438 163.226562 68.234375 157.433594 64.980469 153.628906 C 63.8125 152.265625 62.328125 151.335938 60.726562 150.847656 C 62.039062 147.761719 61.40625 143.886719 59.234375 141.351562 C 57.597656 139.441406 55.335938 138.378906 53.011719 138.199219 C 52.984375 138.199219 52.894531 138.207031 52.894531 138.175781 C 53.070312 135.886719 52.351562 133.527344 50.816406 131.539062 C 49.277344 129.617188 46.832031 128.4375 44.394531 128.28125 C 44.582031 125.964844 43.820312 123.664062 42.449219 121.808594 C 42.425781 121.769531 42.117188 121.359375 42.101562 121.375 C 38.921875 117.828125 32.765625 117.1875 29.253906 120.65625 L 25.128906 124.195312 L 13.851562 110.605469 L 40.246094 88.664062 Z M 120.648438 236.648438 C 120.648438 237.433594 120.550781 238.195312 120.363281 238.921875 L 129.039062 249.378906 L 155.386719 227.472656 L 120.644531 185.8125 Z M 120.648438 236.648438 " fill-opacity="1" fill-rule="evenodd"/></g><g fill="#298126" fill-opacity="1"><g transform="translate(126.561615, 198.228894)"><g><path d="M 10.074219 0 L 25.238281 0 L 25.238281 -39.503906 L 43.59375 -39.503906 L 43.59375 -51.078125 L 25.238281 -51.078125 L 25.238281 -55.367188 C 25.238281 -60.355469 28.230469 -63.546875 32.820312 -63.546875 C 36.710938 -63.546875 40.402344 -61.152344 42.398438 -57.660156 L 47.285156 -67.136719 C 43.695312 -72.324219 37.109375 -75.816406 29.628906 -75.816406 C 17.558594 -75.816406 9.976562 -68.335938 9.976562 -56.5625 L 9.976562 -51.078125 L 0.398438 -51.078125 L 0.398438 -39.503906 L 9.976562 -39.503906 Z M 10.074219 0 "/></g></g></g><g fill="#fb7a22" fill-opacity="1"><g transform="translate(171.649939, 198.228894)"><g><path d="M 11.972656 -58.058594 C 17.359375 -58.058594 21.050781 -61.550781 21.050781 -66.738281 C 21.050781 -72.027344 17.359375 -75.519531 11.972656 -75.519531 C 6.585938 -75.519531 2.992188 -72.027344 2.992188 -66.738281 C 2.992188 -61.550781 6.585938 -58.058594 11.972656 -58.058594 Z M 4.390625 0 L 19.554688 0 L 19.554688 -51.078125 L 4.390625 -51.078125 Z M 4.390625 0 "/></g></g></g><g fill="#e60375" fill-opacity="1"><g transform="translate(193.508279, 198.228894)"><g><path d="M 29.929688 1.996094 C 37.308594 1.996094 44.691406 -1.496094 48.285156 -7.28125 L 43.695312 -16.859375 C 41.300781 -12.46875 37.910156 -10.273438 33.320312 -10.273438 C 28.832031 -10.273438 25.339844 -13.667969 25.339844 -19.253906 L 25.339844 -39.503906 L 45.589844 -39.503906 L 45.589844 -51.078125 L 25.339844 -51.078125 L 25.339844 -68.433594 L 10.074219 -65.144531 L 10.074219 -51.078125 L 0.5 -51.078125 L 0.5 -39.503906 L 10.074219 -39.503906 L 10.074219 -16.859375 C 10.074219 -5.289062 17.65625 1.996094 29.929688 1.996094 Z M 29.929688 1.996094 "/></g></g></g><g fill="#0f0b6c" fill-opacity="1"><g transform="translate(240.794752, 198.228894)"><g><path d="M 32.921875 -52.671875 C 26.636719 -52.671875 21.347656 -48.980469 18.554688 -42.796875 L 18.457031 -42.796875 L 16.160156 -51.078125 L 3.992188 -51.078125 L 3.992188 0 L 19.253906 0 L 19.253906 -27.832031 C 19.253906 -36.210938 22.746094 -41.199219 28.429688 -41.199219 C 32.820312 -41.199219 35.714844 -37.609375 36.210938 -31.324219 L 49.082031 -34.816406 C 47.882812 -46.1875 41.800781 -52.671875 32.921875 -52.671875 Z M 32.921875 -52.671875 "/></g></g></g><g fill="#ee031f" fill-opacity="1"><g transform="translate(289.171492, 198.228894)"><g><path d="M 11.972656 -58.058594 C 17.359375 -58.058594 21.050781 -61.550781 21.050781 -66.738281 C 21.050781 -72.027344 17.359375 -75.519531 11.972656 -75.519531 C 6.585938 -75.519531 2.992188 -72.027344 2.992188 -66.738281 C 2.992188 -61.550781 6.585938 -58.058594 11.972656 -58.058594 Z M 4.390625 0 L 19.554688 0 L 19.554688 -51.078125 L 4.390625 -51.078125 Z M 4.390625 0 "/></g></g></g><g fill="#8a1786" fill-opacity="1"><g transform="translate(311.029839, 198.228894)"><g><path d="M 11.972656 -58.058594 C 17.359375 -58.058594 21.050781 -61.550781 21.050781 -66.738281 C 21.050781 -72.027344 17.359375 -75.519531 11.972656 -75.519531 C 6.585938 -75.519531 2.992188 -72.027344 2.992188 -66.738281 C 2.992188 -61.550781 6.585938 -58.058594 11.972656 -58.058594 Z M 4.390625 0 L 19.554688 0 L 19.554688 -51.078125 L 4.390625 -51.078125 Z M 4.390625 0 "/></g></g></g></svg>